<svg width="82" height="89" viewBox="0 0 82 89" fill="none" xmlns="http://www.w3.org/2000/svg">
    <g style="mix-blend-mode:multiply" opacity="0.3">
        <path fill-rule="evenodd" clip-rule="evenodd" d="M31.8889 0C30.6808 0.000260074 29.5222 0.484221 28.6681 1.34543L1.33478 28.8969C0.480386 29.7579 0.000258015 30.9257 0 32.1434V88.9996H9.11111V36.7353H31.8889C33.0971 36.7353 34.2558 36.2516 35.1102 35.3904C35.9645 34.5292 36.4444 33.3613 36.4444 32.1434V9.18384H68.3333C69.5415 9.18384 70.7003 9.66762 71.5546 10.5288C72.4089 11.3899 72.8889 12.5579 72.8889 13.7758V89C72.8889 89 82 88.9606 82 89V13.7758C82 10.1222 80.5601 6.61828 77.9971 4.03482C75.4341 1.45137 71.958 0 68.3333 0H31.8889ZM27.3333 27.5515H15.5527L27.3333 15.6768V27.5515Z" fill="#848D9F"/>
        <path d="M20 50H62V58H20V50Z" fill="#848D9F"/>
        <path d="M62 68H20V76H62V68Z" fill="#848D9F"/>
    </g>
</svg>